<?xml version="1.0" standalone="no"?>
<!DOCTYPE svg PUBLIC "-//W3C//DTD SVG 20010904//EN"
 "http://www.w3.org/TR/2001/REC-SVG-20010904/DTD/svg10.dtd">
<svg version="1.0" xmlns="http://www.w3.org/2000/svg"
 width="400.000000pt" height="398.000000pt" viewBox="0 0 400.000000 398.000000"
 preserveAspectRatio="xMidYMid meet">
<metadata>
Created by potrace 1.16, written by Peter Selinger 2001-2019
</metadata>
<g transform="translate(0.000000,398.000000) scale(0.100000,-0.100000)"
fill="#000000" stroke="none">
<path d="M1825 3704 c-163 -12 -316 -50 -402 -100 -40 -23 -43 -28 -43 -68 0
-45 20 -95 45 -116 20 -17 19 -59 -3 -91 -35 -52 -86 -109 -96 -109 -6 0 -53
-37 -104 -81 -51 -45 -95 -79 -98 -77 -13 13 -16 110 -4 138 14 34 14 34 40
20 17 -9 21 -5 31 29 10 35 9 42 -10 70 -13 17 -35 38 -51 46 -16 8 -33 22
-38 31 -14 24 -58 -7 -165 -116 -168 -172 -324 -477 -370 -720 -15 -85 -13
-100 14 -100 16 0 19 -8 21 -52 0 -29 0 -60 -1 -68 -9 -80 -3 -97 39 -103 24
-4 25 -6 21 -73 -3 -73 -14 -104 -34 -104 -7 0 -25 -11 -41 -23 l-29 -24 -1
-187 c-1 -103 1 -192 5 -198 4 -6 18 -8 33 -4 35 9 49 47 42 111 -5 43 -4 46
5 25 7 -14 28 -59 49 -100 21 -44 37 -93 39 -120 3 -47 17 -66 37 -49 8 7 23
-5 49 -41 33 -45 39 -61 46 -132 5 -48 13 -85 21 -89 20 -13 38 -11 44 6 9 21
24 19 24 -4 0 -28 11 -52 21 -45 5 3 9 16 9 30 0 53 20 19 41 -74 28 -117 30
-252 6 -393 -24 -137 -2 -191 63 -152 34 20 39 44 32 148 -11 164 -9 180 14
177 37 -5 59 33 56 98 -2 38 4 79 17 118 23 72 30 158 12 154 -20 -4 -78 47
-97 86 -9 20 -27 51 -40 67 -41 54 -43 118 -5 128 13 3 27 -6 47 -32 15 -20
51 -56 81 -81 37 -31 67 -70 98 -127 46 -84 65 -98 108 -88 17 5 26 2 30 -9
10 -25 46 -19 57 9 5 14 13 25 16 25 4 0 55 -15 113 -34 58 -19 147 -42 198
-52 101 -19 103 -21 103 -103 l0 -44 -72 7 c-89 8 -274 52 -306 73 -33 21 -45
13 -67 -48 -20 -55 -23 -174 -5 -193 11 -11 43 51 36 70 -7 18 -4 18 74 -5
117 -35 147 -41 188 -41 37 0 41 -3 56 -40 19 -48 20 -70 4 -105 -27 -60 42
-105 78 -50 13 20 14 31 5 56 -16 46 -14 57 15 86 20 20 23 28 12 34 -9 6 -4
9 15 9 34 0 62 -42 78 -120 7 -30 16 -63 21 -72 11 -23 38 -23 38 -1 0 11 3
13 9 7 5 -5 11 -70 12 -144 2 -102 -1 -150 -14 -196 -24 -86 -22 -170 3 -212
17 -28 25 -33 52 -30 19 2 38 13 50 29 38 50 38 80 3 312 -5 36 -4 37 25 37
36 0 74 34 65 58 -17 43 -26 144 -19 217 6 70 22 142 23 108 1 -21 41 -15 41
5 0 27 33 62 58 62 12 0 23 9 27 20 4 11 20 27 37 36 28 15 30 15 25 0 -9 -22
12 -64 34 -71 68 -22 86 104 25 176 -34 40 -34 96 -1 167 14 30 25 58 25 64 0
10 162 169 167 164 2 -1 5 -22 8 -47 5 -36 1 -52 -19 -84 -56 -89 -64 -116
-69 -231 -7 -125 -2 -154 22 -154 26 0 45 42 37 84 -7 38 10 120 23 112 4 -3
11 -35 14 -72 4 -37 9 -69 12 -73 14 -13 40 19 47 56 3 22 16 56 27 77 12 20
21 45 21 55 0 10 7 24 15 31 12 10 15 10 15 -4 0 -9 8 -16 20 -16 16 0 20 7
20 34 0 25 11 47 40 83 78 94 170 218 170 231 0 6 5 12 10 12 6 0 10 -11 10
-25 0 -29 26 -35 33 -7 3 12 9 6 21 -22 10 -21 21 -35 25 -30 10 11 29 80 41
148 5 28 17 54 25 59 39 22 49 91 30 210 -8 51 -15 113 -15 140 0 26 -3 48 -7
48 -91 14 -143 6 -143 -20 0 -28 -69 -249 -96 -309 l-24 -52 -62 31 c-76 38
-73 35 -60 52 16 19 82 225 82 256 0 14 7 49 16 76 35 111 5 400 -57 554 -16
41 -28 75 -27 76 37 28 87 16 85 -20 -3 -63 4 -87 24 -92 20 -6 21 -10 14 -94
-4 -48 -4 -102 0 -119 6 -29 10 -32 41 -28 43 5 48 -9 46 -116 -3 -102 2 -116
38 -116 39 0 50 23 50 102 0 71 26 140 58 157 31 17 35 45 17 129 -41 188
-116 379 -199 511 -49 76 -277 286 -353 325 l-32 16 -29 -60 c-27 -53 -29 -64
-19 -95 7 -23 15 -34 24 -31 9 4 13 -5 13 -28 0 -63 22 -88 39 -43 9 21 9 21
17 2 4 -11 13 -27 20 -35 7 -8 14 -38 16 -65 2 -37 7 -51 20 -53 13 -2 18 8
25 50 5 31 13 53 21 53 14 0 102 -105 102 -122 0 -17 -111 -98 -119 -86 -96
138 -313 343 -363 343 -7 0 -23 7 -35 15 -69 48 -328 125 -422 125 -25 0 -26
3 -29 60 -3 47 0 61 12 66 26 10 237 -13 295 -32 42 -14 55 -24 63 -46 6 -15
15 -28 21 -28 24 0 46 -32 40 -60 -4 -23 -1 -29 16 -35 28 -8 51 10 51 41 0
13 7 60 16 104 16 78 16 81 -2 95 -26 19 -179 69 -299 99 -100 25 -283 38
-400 30z m23 -236 c2 -38 -1 -68 -5 -68 -29 0 -207 -43 -252 -60 -51 -20 -54
-20 -67 -3 -26 35 -15 103 17 103 10 0 19 5 19 10 0 6 8 22 17 36 16 25 17 25
30 8 13 -18 15 -18 31 4 20 26 82 41 157 39 l50 -2 3 -67z m256 -237 c28 -6
62 -12 76 -15 74 -12 210 -62 210 -76 0 -5 27 -23 60 -41 77 -41 215 -171 258
-241 48 -80 108 -234 126 -324 17 -83 23 -160 14 -170 -13 -12 -561 -52 -823
-58 -294 -8 -543 -16 -635 -21 -41 -2 -142 -5 -225 -5 l-150 -2 3 86 c2 47 11
119 22 160 18 73 80 209 100 221 5 3 10 14 10 23 0 10 18 39 40 66 22 26 40
52 40 56 0 8 61 63 186 167 22 18 77 49 124 70 47 21 87 41 90 45 7 8 157 45
222 54 24 4 44 7 45 8 9 8 165 5 207 -3z m-1054 -143 c0 -35 -31 -180 -41
-192 -9 -10 -109 60 -109 77 0 7 24 48 53 91 76 116 70 111 84 79 7 -15 12
-40 13 -55z m-163 -299 c24 -11 43 -26 43 -32 0 -6 -11 -39 -25 -74 -23 -57
-62 -227 -80 -354 -8 -53 8 -204 32 -299 9 -36 36 -112 60 -169 24 -58 40
-108 36 -111 -33 -27 -92 -70 -97 -70 -3 0 -13 11 -22 25 -14 22 -15 30 -4 50
17 32 2 104 -47 229 l-36 90 7 205 c8 233 26 377 58 469 13 34 25 62 27 62 3
0 24 -9 48 -21z m1923 -605 l32 -7 -6 -56 c-7 -59 -53 -201 -66 -201 -11 0
-17 39 -19 133 -2 85 5 137 19 137 4 0 22 -3 40 -6z m-207 -71 c2 -38 5 -159
6 -271 2 -235 1 -236 -89 -311 -88 -73 -150 -108 -161 -90 -5 8 -9 145 -10
304 -1 160 -2 319 -4 355 -1 36 0 68 2 73 2 4 60 7 127 7 l123 0 6 -67z m-456
43 c4 -3 14 -317 16 -536 l2 -244 -50 -19 c-92 -35 -320 -24 -354 17 -27 32
-38 772 -12 777 57 11 385 15 398 5z m-607 -88 c0 -40 3 -191 6 -335 7 -303
15 -284 -95 -231 -121 58 -137 72 -150 136 -6 31 -12 155 -14 274 l-2 217 25
3 c14 2 71 5 128 6 l102 4 0 -74z m-410 -93 c0 -74 -2 -135 -4 -135 -20 0 -96
195 -96 245 0 23 4 25 50 25 l50 0 0 -135z m1228 -755 c40 -38 24 -90 -36
-116 -64 -27 -151 -53 -202 -60 l-50 -7 0 62 c0 33 0 64 0 68 -1 4 27 13 62
20 35 7 90 21 123 32 76 25 77 25 103 1z"/>
<path d="M2300 2919 c-60 -27 -107 -74 -136 -134 -26 -55 -30 -107 -13 -187
15 -70 70 -124 164 -162 l67 -27 68 27 c126 49 180 118 180 230 0 95 -67 199
-160 247 -62 32 -109 34 -170 6z"/>
<path d="M1410 2872 c-164 -107 -196 -254 -87 -395 63 -81 187 -117 288 -82
102 36 144 110 144 256 0 92 -2 100 -30 140 -47 67 -110 101 -198 106 -67 4
-75 2 -117 -25z"/>
<path d="M1898 2510 c-36 -28 -39 -87 -5 -125 41 -48 134 -29 157 31 15 37 12
50 -12 79 -33 37 -103 45 -140 15z"/>
</g>
</svg>
